<svg xmlns="http://www.w3.org/2000/svg" viewBox="0 0 300 200" width="100%" height="100%">
  <defs>
    <radialGradient id="bg" cx="50%" cy="50%" r="50%">
      <stop offset="0%" stop-color="#FFFFFF" />
      <stop offset="100%" stop-color="#FAF5EF" />
    </radialGradient>
  </defs>
  <rect width="300" height="200" rx="16" fill="url(#bg)" />
  <!-- Stylized Chicken Icon representing food -->
  <g transform="translate(110, 50)">
    <path d="M60 20 C35 20 20 35 20 60 C20 75 30 85 45 90 L55 90 C62 90 68 85 70 78 L78 62 C82 54 90 50 98 50 C100 50 100 45 95 45 C80 45 70 30 60 20 Z" fill="#FFC72C" />
    <path d="M20 60 C10 60 0 70 0 80 C0 85 5 90 10 90 C25 90 25 70 20 60 Z" fill="#FF9E1B" />
    <circle cx="50" cy="42" r="5" fill="#E50914" />
  </g>
</svg>